<?xml version="1.0" encoding="UTF-8"?>
<svg width="133px" height="25px" viewBox="0 0 133 25" version="1.1" xmlns="http://www.w3.org/2000/svg" xmlns:xlink="http://www.w3.org/1999/xlink">
    <defs>
        <linearGradient x1="55.9075978%" y1="23.4971817%" x2="40.6547043%" y2="62.8850965%" id="linearGradient-1">
            <stop stop-color="#521C89" offset="0%"></stop>
            <stop stop-color="#8D1AF1" offset="51.64%"></stop>
            <stop stop-color="#FFA5F6" offset="100%"></stop>
        </linearGradient>
        <linearGradient x1="38.9173015%" y1="94.566774%" x2="55.6528596%" y2="22.2347328%" id="linearGradient-2">
            <stop stop-color="#1837D8" offset="0%"></stop>
            <stop stop-color="#00C1FF" offset="50.74%"></stop>
            <stop stop-color="#70E6FF" offset="100%"></stop>
        </linearGradient>
        <linearGradient x1="-19.5081887%" y1="344.811033%" x2="45.5889168%" y2="68.3018617%" id="linearGradient-3">
            <stop stop-color="#1837D8" offset="0%"></stop>
            <stop stop-color="#00C1FF" offset="50.74%"></stop>
            <stop stop-color="#70E6FF" offset="100%"></stop>
        </linearGradient>
        <linearGradient x1="-45.4238939%" y1="454.286827%" x2="64.1202459%" y2="-9.85378943%" id="linearGradient-4">
            <stop stop-color="#1837D8" offset="0%"></stop>
            <stop stop-color="#00C1FF" offset="50.74%"></stop>
            <stop stop-color="#70E6FF" offset="100%"></stop>
        </linearGradient>
    </defs>
    <g id="Page-1" stroke="none" stroke-width="1" fill="none" fill-rule="evenodd">
        <g id="Group-139-(1)" transform="translate(0.667000, 0.555900)">
            <path d="M20.58,24.386 C19.466,24.386 18.422,23.901 17.702,23.069 C16.003,23.931 14.108,24.386 12.194,24.386 C5.471,24.386 0,18.915 0,12.194 C0,5.473 5.471,0 12.194,0 C18.915,0 24.383,5.486 24.386,12.229 L24.129,12.231 L24.386,12.229 L24.386,12.231 L24.386,20.58 C24.386,22.678 22.678,24.386 20.58,24.386 Z M18.024,21.677 L18.297,22.089 C18.805,22.857 19.659,23.315 20.577,23.315 C22.087,23.315 23.313,22.087 23.313,20.58 L23.313,12.234 C23.313,6.078 18.323,1.07299865 12.191,1.07299865 C6.059,1.07 1.07,6.059 1.07,12.194 C1.07,18.329 6.059,23.318 12.194,23.318 C14.081,23.318 15.949,22.833 17.593,21.918 L18.024,21.677 Z" id="Shape" fill="#FFFFFF" fill-rule="nonzero"></path>
            <path d="M11.715,21.6051 C16.91,21.8051 21.286,17.7481 21.482,12.5441 C21.501,12.0951 21.487,11.6592 21.442,11.2222 C21.46,11.7502 21.319,12.3041 20.992,12.7001 C20.256,13.5911 18.99,13.3772 18.781,12.4592 C18.671,11.9582 18.886,11.3511 19.314,11.0641 C16.94,10.6871 16.265,12.9782 15.023,14.1962 C13.685,15.5132 11.611,15.0361 11.257,13.4731 C11.062,12.6061 11.426,11.5511 12.162,11.0381 C10.925,10.7511 9.983,11.1151 9.113,11.9881 C8.286,12.8091 7.695,13.9021 6.694,14.4881 C5.752,15.0471 4.443,15.1011 3.605,14.3111 C2.987,13.7301 2.695,12.7991 2.668,11.8161 C2.47,17.0251 6.52,21.4011 11.715,21.6051 Z" id="Path" fill="url(#linearGradient-1)"></path>
            <path d="M11.228,8.246 C15.987,8.214 15.331,2.398 11.169,2.794 C6.552,3.235 2.853,7.047 2.671,11.822 C2.698,12.804 2.989,13.736 3.608,14.316 C4.445,15.103 5.754,15.052 6.696,14.493 C7.106,14.258 7.443,13.934 7.756,13.58 C6.852,14.635 5.468,14.126 5.39,12.772 C5.318,11.45 6.046,10.114 7.095,9.333 C8.23,8.479 9.713,8.251 11.228,8.246 Z" id="Path" fill="url(#linearGradient-2)"></path>
            <path d="M17.237,5.1331 C18.115,5.1651 18.797,5.9012 18.76,6.7822 C18.728,7.6542 17.992,8.3401 17.122,8.3051 C16.244,8.2651 15.567,7.5292 15.601,6.6562 C15.631,5.7762 16.364,5.0981 17.237,5.1331 Z" id="Path" fill="url(#linearGradient-3)"></path>
            <path d="M19.603,8.1469 C20.122,8.1659 20.526,8.6019 20.507,9.1239 C20.489,9.6459 20.044,10.0549 19.525,10.0369 C19.006,10.0099 18.602,9.5739 18.62,9.0519 C18.642,8.5319 19.084,8.1279 19.603,8.1469 Z" id="Path" fill="url(#linearGradient-4)"></path>
            <path d="M45.83,7.317 L45.83,18.408 L44.423,18.408 L44.423,16.502 C43.825,17.229 43.152,17.776 42.404,18.143 C41.664,18.51 40.852,18.694 39.968,18.694 C38.398,18.694 37.056,18.126 35.941,16.991 C34.834,15.85 34.28,14.463 34.28,12.832 C34.28,11.235 34.84,9.869 35.962,8.734 C37.083,7.599 38.432,7.032 40.009,7.032 C40.919,7.032 41.742,7.226 42.476,7.613 C43.217,8 43.866,8.581 44.423,9.356 L44.423,7.317 L45.83,7.317 Z M40.121,8.408 C39.326,8.408 38.592,8.605 37.919,8.999 C37.246,9.387 36.709,9.934 36.308,10.641 C35.914,11.347 35.717,12.095 35.717,12.883 C35.717,13.665 35.918,14.412 36.319,15.126 C36.72,15.839 37.256,16.397 37.929,16.798 C38.609,17.192 39.336,17.389 40.111,17.389 C40.892,17.389 41.633,17.192 42.333,16.798 C43.033,16.404 43.57,15.87 43.944,15.197 C44.324,14.524 44.515,13.767 44.515,12.924 C44.515,11.64 44.09,10.566 43.24,9.703 C42.398,8.84 41.358,8.408 40.121,8.408 Z M49.046,3.036 L50.473,3.036 L50.473,18.408 L49.046,18.408 L49.046,3.036 Z M64.413,9.621 L63.281,10.325 C62.303,9.027 60.967,8.378 59.275,8.378 C57.923,8.378 56.798,8.812 55.901,9.682 C55.011,10.552 54.565,11.609 54.565,12.853 C54.565,13.661 54.769,14.423 55.177,15.136 C55.592,15.85 56.156,16.404 56.869,16.798 C57.59,17.192 58.395,17.389 59.285,17.389 C60.916,17.389 62.248,16.74 63.281,15.442 L64.413,16.186 C63.883,16.981 63.169,17.6 62.272,18.041 C61.382,18.476 60.366,18.694 59.224,18.694 C57.471,18.694 56.016,18.137 54.861,17.022 C53.706,15.907 53.128,14.552 53.128,12.955 C53.128,11.881 53.396,10.885 53.933,9.968 C54.477,9.044 55.221,8.323 56.166,7.807 C57.11,7.29 58.167,7.032 59.336,7.032 C60.07,7.032 60.777,7.144 61.456,7.368 C62.143,7.593 62.724,7.885 63.2,8.245 C63.675,8.605 64.08,9.064 64.413,9.621 Z M67.374,3.036 L68.801,3.036 L68.801,9.305 C69.379,8.544 70.014,7.977 70.707,7.603 C71.4,7.222 72.151,7.032 72.96,7.032 C73.789,7.032 74.523,7.243 75.162,7.664 C75.808,8.085 76.283,8.653 76.589,9.366 C76.895,10.073 77.048,11.184 77.048,12.7 L77.048,18.408 L75.621,18.408 L75.621,13.118 C75.621,11.84 75.57,10.987 75.468,10.559 C75.291,9.825 74.968,9.275 74.499,8.908 C74.037,8.534 73.429,8.347 72.675,8.347 C71.812,8.347 71.037,8.632 70.35,9.203 C69.671,9.774 69.222,10.481 69.005,11.324 C68.869,11.867 68.801,12.873 68.801,14.341 L68.801,18.408 L67.374,18.408 L67.374,3.036 Z M89.663,14.728 L90.866,15.36 C90.471,16.135 90.016,16.76 89.5,17.236 C88.983,17.712 88.402,18.075 87.756,18.327 C87.111,18.571 86.38,18.694 85.565,18.694 C83.757,18.694 82.343,18.103 81.324,16.92 C80.305,15.731 79.795,14.389 79.795,12.893 C79.795,11.487 80.227,10.233 81.09,9.132 C82.184,7.732 83.648,7.032 85.483,7.032 C87.372,7.032 88.881,7.749 90.009,9.183 C90.811,10.195 91.219,11.459 91.233,12.975 L81.263,12.975 C81.29,14.266 81.701,15.326 82.496,16.155 C83.291,16.978 84.274,17.389 85.442,17.389 C86.006,17.389 86.554,17.29 87.084,17.093 C87.621,16.896 88.076,16.635 88.45,16.308 C88.823,15.982 89.228,15.456 89.663,14.728 Z M89.663,11.742 C89.472,10.98 89.194,10.372 88.827,9.917 C88.467,9.461 87.988,9.094 87.389,8.816 C86.791,8.537 86.163,8.398 85.504,8.398 C84.416,8.398 83.482,8.748 82.7,9.448 C82.129,9.958 81.698,10.722 81.406,11.742 L89.663,11.742 Z M94.102,7.317 L95.519,7.317 L95.519,9.234 C96.015,8.527 96.525,8.011 97.048,7.684 C97.768,7.249 98.526,7.032 99.321,7.032 C99.858,7.032 100.368,7.137 100.85,7.348 C101.333,7.559 101.727,7.841 102.033,8.194 C102.339,8.541 102.604,9.04 102.828,9.693 C103.304,8.823 103.898,8.163 104.612,7.715 C105.325,7.26 106.093,7.032 106.916,7.032 C107.684,7.032 108.36,7.226 108.944,7.613 C109.536,8 109.974,8.541 110.259,9.234 C110.545,9.927 110.688,10.967 110.688,12.353 L110.688,18.408 L109.23,18.408 L109.23,12.353 C109.23,11.164 109.145,10.348 108.975,9.907 C108.805,9.458 108.513,9.098 108.098,8.826 C107.69,8.554 107.201,8.418 106.63,8.418 C105.937,8.418 105.302,8.622 104.724,9.03 C104.153,9.438 103.735,9.981 103.47,10.661 C103.205,11.341 103.073,12.475 103.073,14.066 L103.073,18.408 L101.656,18.408 L101.656,12.73 C101.656,11.392 101.571,10.484 101.401,10.009 C101.238,9.526 100.949,9.142 100.534,8.857 C100.12,8.564 99.627,8.418 99.056,8.418 C98.397,8.418 97.779,8.619 97.201,9.02 C96.63,9.414 96.205,9.947 95.927,10.62 C95.655,11.293 95.519,12.323 95.519,13.709 L95.519,18.408 L94.102,18.408 L94.102,7.317 Z M114.413,2.75 C114.739,2.75 115.018,2.866 115.249,3.097 C115.48,3.328 115.596,3.607 115.596,3.933 C115.596,4.252 115.48,4.528 115.249,4.759 C115.018,4.99 114.739,5.105 114.413,5.105 C114.094,5.105 113.819,4.99 113.587,4.759 C113.356,4.528 113.241,4.252 113.241,3.933 C113.241,3.607 113.356,3.328 113.587,3.097 C113.819,2.866 114.094,2.75 114.413,2.75 Z M113.7,7.317 L115.137,7.317 L115.137,18.408 L113.7,18.408 L113.7,7.317 Z M123.878,8.53 L122.961,9.478 C122.199,8.738 121.455,8.367 120.728,8.367 C120.266,8.367 119.868,8.52 119.535,8.826 C119.209,9.132 119.046,9.489 119.046,9.896 C119.046,10.257 119.182,10.6 119.454,10.926 C119.726,11.259 120.297,11.65 121.166,12.098 C122.227,12.649 122.947,13.179 123.328,13.689 C123.701,14.205 123.888,14.786 123.888,15.432 C123.888,16.342 123.569,17.114 122.93,17.746 C122.291,18.378 121.493,18.694 120.534,18.694 C119.896,18.694 119.284,18.554 118.7,18.276 C118.122,17.997 117.643,17.613 117.262,17.124 L118.159,16.105 C118.886,16.927 119.658,17.338 120.473,17.338 C121.044,17.338 121.53,17.155 121.931,16.788 C122.332,16.421 122.532,15.989 122.532,15.493 C122.532,15.085 122.4,14.722 122.135,14.402 C121.87,14.09 121.272,13.695 120.341,13.22 C119.342,12.703 118.662,12.193 118.302,11.691 C117.942,11.188 117.762,10.613 117.762,9.968 C117.762,9.125 118.047,8.425 118.618,7.868 C119.196,7.311 119.923,7.032 120.799,7.032 C121.819,7.032 122.845,7.531 123.878,8.53 Z M127.869,3.199 L129.306,3.199 L129.306,7.317 L131.569,7.317 L131.569,8.541 L129.306,8.541 L129.306,18.408 L127.869,18.408 L127.869,8.541 L125.922,8.541 L125.922,7.317 L127.869,7.317 L127.869,3.199 Z" id="Shape" fill="#FFFFFF" fill-rule="nonzero"></path>
        </g>
    </g>
</svg>