<svg width="232" height="353" viewBox="0 0 232 353" fill="none" xmlns="http://www.w3.org/2000/svg">
<g clip-path="url(#clip0)">
<path d="M89.3766 87.2841L91.2856 75.6396H139.582L143.501 87.2841C143.489 87.2841 103.974 97.4906 89.3766 87.2841Z" fill="black"/>
<path d="M116.993 235.647C116.954 235.609 119.309 234.845 119.309 234.845L141.962 217.474L141.134 213.465L94.9126 213.783L93.9836 220.592L116.993 235.647Z" fill="black"/>
<path d="M85.0115 260.425C82.5299 260.871 75.9377 273.813 75.9377 273.813L72.4761 280.38C72.4761 280.38 67.5765 293.895 67.5765 294.086C67.5765 294.277 59.4953 307.767 59.4953 307.767L58.8717 339.837H65.8839C69.1673 325.011 79.5647 314.448 79.5647 314.448L85.3551 287.061L85.7369 282.951C85.7369 282.951 93.4618 271.942 93.2199 269.715C92.9654 267.488 87.4931 259.98 85.0115 260.425Z" fill="black"/>
<path d="M59.1135 327.429L59.0753 329.529H69.4473C69.7909 328.803 70.1345 328.103 70.4781 327.429H59.1135Z" fill="black"/>
<path d="M67.7165 333.728H58.999L58.9608 335.828H67.0038C67.2202 335.116 67.462 334.416 67.7165 333.728Z" fill="black"/>
<path d="M59.2408 321.129L59.2026 323.229H72.8961C73.3669 322.478 73.8251 321.791 74.2705 321.129H59.2408Z" fill="black"/>
<path d="M59.3553 315.021L59.3172 317.121H77.2485C78.0121 316.179 78.6357 315.466 79.0429 315.021H59.3553Z" fill="black"/>
<path d="M78.1011 269.779C81.639 271.268 86.4878 273.317 90.8147 275.137C91.0438 274.755 91.2601 274.386 91.4637 274.017L78.9029 268.379C78.6229 268.863 78.3557 269.334 78.1011 269.779Z" fill="black"/>
<path d="M88.104 279.464C88.3331 279.12 88.5749 278.751 88.8167 278.382L76.4595 272.833C76.1413 273.431 75.9504 273.813 75.9504 273.813L75.7213 274.246C79.2847 275.748 83.9552 277.72 88.104 279.464Z" fill="black"/>
<path d="M85.6987 283.447L85.7496 282.951C85.7496 282.951 85.9278 282.696 86.2078 282.289L74.296 276.944L73.5706 278.331C77.2103 279.871 81.7663 281.792 85.6987 283.447Z" fill="black"/>
<path d="M85.0497 288.537L85.317 287.303L72.1198 281.373C71.9798 281.78 71.7889 282.276 71.5853 282.849C75.5813 284.541 80.7737 286.73 85.0497 288.537Z" fill="black"/>
<path d="M93.589 215.374L116.967 235.609C116.967 235.609 102.459 272.833 100.359 274.742C98.2596 276.651 85.7624 282.951 85.7624 282.951C85.7624 282.951 89.8602 272.744 89.6693 271.013C89.4784 269.295 84.0316 264.905 83.1789 265.388C82.3135 265.872 75.7341 274.068 75.7341 274.068C75.7341 274.068 73.6342 260.616 74.1178 257.078C74.6014 253.553 88.3331 212.892 88.3331 212.892L93.589 215.374Z" fill="black"/>
<path d="M72.4761 280.38C72.4761 280.38 75.3395 293.742 75.6322 293.742C75.9122 293.742 85.3679 287.061 85.3679 287.061C85.3679 287.061 87.1877 308.632 86.5132 309.014C85.8387 309.396 79.5774 314.448 79.5774 314.448C79.5774 314.448 74.5887 309.103 72.8706 308.021C71.1526 306.94 59.5081 307.767 59.5081 307.767C59.5081 307.767 64.3313 289.377 72.4761 280.38Z" fill="black"/>
<path d="M65.8967 339.837L69.04 352.143H53.1958L58.8717 339.837H65.8967Z" fill="black"/>
<path d="M174.452 307.805C174.452 307.805 166.371 294.315 166.371 294.124C166.371 293.934 161.471 280.418 161.471 280.418L158.009 273.851C158.009 273.851 151.417 260.909 148.936 260.463C146.454 260.018 140.982 267.526 140.727 269.754C140.473 271.981 148.21 282.989 148.21 282.989L148.592 287.1L154.382 314.486C154.382 314.486 164.78 325.049 168.063 339.875H175.075L174.452 307.805Z" fill="black"/>
<path d="M174.834 327.467L174.872 329.567H164.5C164.156 328.842 163.813 328.142 163.469 327.467H174.834Z" fill="black"/>
<path d="M166.243 333.767H174.961L174.999 335.867H166.956C166.727 335.154 166.498 334.454 166.243 333.767Z" fill="black"/>
<path d="M174.706 321.168L174.744 323.267H161.051C160.58 322.517 160.122 321.829 159.677 321.168H174.706Z" fill="black"/>
<path d="M174.592 315.059L174.63 317.159H156.699C155.935 316.217 155.311 315.505 154.904 315.059H174.592Z" fill="black"/>
<path d="M155.846 269.817C152.308 271.306 147.459 273.355 143.145 275.175C142.916 274.793 142.7 274.424 142.496 274.055L155.057 268.417C155.324 268.901 155.591 269.372 155.846 269.817Z" fill="black"/>
<path d="M145.856 279.502C145.627 279.158 145.385 278.789 145.143 278.42L157.5 272.871C157.819 273.469 158.01 273.851 158.01 273.851L158.239 274.284C154.675 275.786 149.992 277.758 145.856 279.502Z" fill="black"/>
<path d="M148.248 283.485L148.198 282.989C148.198 282.989 148.019 282.734 147.739 282.327L159.651 276.982L160.377 278.369C156.737 279.909 152.181 281.831 148.248 283.485Z" fill="black"/>
<path d="M148.897 288.576L148.63 287.341L161.827 281.411C161.967 281.818 162.158 282.314 162.362 282.887C158.366 284.58 153.186 286.769 148.897 288.576Z" fill="black"/>
<path d="M140.371 215.412L116.993 235.647C116.993 235.647 131.501 272.872 133.6 274.78C135.7 276.689 148.198 282.989 148.198 282.989C148.198 282.989 144.1 272.782 144.291 271.052C144.481 269.334 149.916 264.943 150.781 265.414C151.634 265.898 158.226 274.106 158.226 274.106C158.226 274.106 160.326 260.642 159.855 257.116C159.384 253.591 145.627 212.931 145.627 212.931L140.371 215.412Z" fill="black"/>
<path d="M161.471 280.406C161.471 280.406 158.608 293.768 158.328 293.768C158.048 293.768 148.592 287.087 148.592 287.087C148.592 287.087 146.772 308.658 147.447 309.04C148.121 309.421 154.382 314.474 154.382 314.474C154.382 314.474 159.371 309.129 161.089 308.047C162.807 306.965 174.452 307.792 174.452 307.792C174.452 307.792 169.616 289.416 161.471 280.406Z" fill="black"/>
<path d="M168.05 339.875L164.907 352.182H180.751L175.075 339.875H168.05Z" fill="black"/>
<path d="M85.7497 177.87C85.7497 177.87 89.5294 193.23 88.6385 204.684H145.143C145.143 204.684 143.362 181.649 146.543 176.941C145.143 173.759 108.81 158.551 85.7497 177.87Z" fill="black"/>
<path d="M127.606 167.358H104.406V204.773H127.606V167.358Z" fill="black"/>
<path d="M170.214 162.433L167.541 163.324L97.6742 158.959L64.4586 163.324L61.7861 162.433L48.0417 153.906L40.8768 126.099C40.8768 126.099 160.504 120.882 165.123 123.618C169.743 126.354 202.806 134.677 202.806 134.677L170.214 162.433Z" fill="black"/>
<path d="M169.323 93.5836L144.061 84.4207C136.617 89.9566 116 89.1931 116 89.1931C116 89.1931 95.3834 89.9566 87.9385 84.4207L62.6769 93.5836L51.7832 133.531L64.4586 163.247L84.057 181.013C84.057 181.013 98.6286 170.399 116 170.17C133.371 170.399 147.943 181.013 147.943 181.013L167.541 163.247L180.217 133.531L169.323 93.5836Z" fill="black"/>
<path d="M84.057 181.09C84.057 181.09 92.2273 175.134 103.63 172.054C101.874 162.713 96.9615 140.493 89.4657 136.497C79.921 131.406 51.7832 133.608 51.7832 133.608L64.4586 163.324L84.057 181.09Z" fill="black"/>
<path d="M147.943 181.09C147.943 181.09 139.773 175.134 128.37 172.054C130.126 162.713 135.039 140.493 142.534 136.497C152.079 131.406 180.217 133.608 180.217 133.608L167.541 163.324L147.943 181.09Z" fill="black"/>
<path d="M9.01022 218.81L10.881 221.635L26.6616 212.892L26.038 211.034L9.01022 218.81Z" fill="black"/>
<path d="M50.1415 135.122L61.7988 162.433L31.8157 178.811L26.4579 177.857L27.2342 184.729L27.5524 211.302L8.52662 220.083C8.52662 220.083 -3.61424 201.681 1.14538 176.113C1.46354 170.17 7.19037 148.752 7.19037 148.752L18.5168 130.363C18.5168 130.363 48.8944 132.195 50.1415 135.122Z" fill="black"/>
<path d="M62.6769 93.5836C62.6769 93.5836 63.9496 119.927 62.6769 125.272C61.4043 130.617 46.26 137.744 41.0423 137.871C35.8245 137.998 18.5168 130.363 18.5168 130.363C18.5168 130.363 32.1339 108.982 40.0242 103.001C47.9144 97.0197 62.6769 93.5836 62.6769 93.5836Z" fill="black"/>
<path d="M50.7523 97.376C49.3652 97.9233 47.9526 98.5214 46.5781 99.1832L62.2569 126.366C62.4478 125.997 62.6005 125.641 62.6896 125.297C62.855 124.61 62.9696 123.579 63.0587 122.32L50.7523 97.376Z" fill="black"/>
<path d="M37.1353 105.61C36.2571 106.501 35.3409 107.481 34.4118 108.55L55.8938 132.042C56.6828 131.546 57.4591 131.05 58.1591 130.528L37.1353 105.61Z" fill="black"/>
<path d="M50.1415 135.122L28.6468 115.791C27.9087 116.784 27.1706 117.776 26.4706 118.743L46.9854 136.408C48.0035 136.038 49.0598 135.606 50.1415 135.122Z" fill="black"/>
<path d="M7.19036 148.752C7.19036 148.752 13.9989 157.533 14.5716 162.305C15.1443 167.078 12.8536 172.868 11.5173 174.141C10.181 175.414 1.14538 176.113 1.14538 176.113C1.14538 176.113 -0.0636158 165.105 1.55547e-05 161.733C0.0636469 158.36 7.19036 148.752 7.19036 148.752Z" fill="black"/>
<path d="M0.190893 165.716L14.3425 167.192C14.4698 166.505 14.5716 165.818 14.6225 165.118L0.0381775 163.247C0.0763563 163.973 0.127261 164.812 0.190893 165.716Z" fill="black"/>
<path d="M2.68524 155.522L14.368 161.236C14.0753 160.117 13.5408 158.857 12.879 157.571L4.2633 152.99C3.74152 153.792 3.20702 154.657 2.68524 155.522Z" fill="black"/>
<path d="M12.7772 172.156C13.0444 171.57 13.3244 170.908 13.5662 170.17L0.623566 170.87C0.699923 171.621 0.763555 172.321 0.827186 172.97C3.60151 172.754 9.34106 172.372 12.7772 172.156Z" fill="black"/>
<path d="M27.2342 184.729C27.2342 184.729 18.9239 179.384 19.1148 176.903C19.3057 174.421 23.0218 170.03 25.3253 171.176C27.616 172.321 31.8157 178.811 31.8157 178.811C31.8157 178.811 27.2342 180.351 27.2342 184.729Z" fill="black"/>
<path d="M26.6616 212.892L10.881 221.648C10.881 221.648 20.9984 233.649 23.989 234.094C26.9797 234.54 36.2699 220.859 35.6336 218.886C34.9973 216.901 26.6616 212.892 26.6616 212.892Z" fill="black"/>
<path d="M223.003 218.81L221.119 221.635L205.339 212.892L205.962 211.034L223.003 218.81Z" fill="black"/>
<path d="M181.871 135.122L170.214 162.433L200.184 178.824L205.542 177.87L204.766 184.742L204.448 211.314L223.473 220.096C223.473 220.096 235.614 201.693 230.855 176.126C230.536 170.183 224.81 148.765 224.81 148.765L213.483 130.363C213.483 130.363 183.118 132.195 181.871 135.122Z" fill="black"/>
<path d="M169.323 93.5836C169.323 93.5836 168.05 119.927 169.323 125.272C170.596 130.617 185.74 137.744 190.958 137.871C196.176 137.998 213.483 130.363 213.483 130.363C213.483 130.363 199.866 108.982 191.976 103.001C184.086 97.0197 169.323 93.5836 169.323 93.5836Z" fill="black"/>
<path d="M181.248 97.376C182.635 97.9233 184.047 98.5214 185.422 99.1832L169.743 126.366C169.552 125.997 169.399 125.641 169.31 125.297C169.145 124.61 169.03 123.579 168.941 122.32L181.248 97.376Z" fill="black"/>
<path d="M194.865 105.61C195.743 106.501 196.659 107.481 197.588 108.55L176.106 132.042C175.317 131.546 174.541 131.05 173.841 130.528L194.865 105.61Z" fill="black"/>
<path d="M181.871 135.122L203.366 115.791C204.104 116.784 204.842 117.776 205.542 118.743L185.027 136.408C183.996 136.038 182.94 135.606 181.871 135.122Z" fill="black"/>
<path d="M224.81 148.752C224.81 148.752 218.001 157.533 217.428 162.305C216.856 167.078 219.146 172.868 220.483 174.141C221.819 175.414 230.855 176.113 230.855 176.113C230.855 176.113 232.064 165.105 232 161.733C231.936 158.36 224.81 148.752 224.81 148.752Z" fill="black"/>
<path d="M231.822 165.716L217.67 167.192C217.543 166.505 217.441 165.818 217.39 165.118L231.975 163.247C231.936 163.973 231.886 164.812 231.822 165.716Z" fill="black"/>
<path d="M229.315 155.522L217.632 161.236C217.925 160.117 218.459 158.857 219.121 157.571L227.737 152.99C228.259 153.792 228.806 154.657 229.315 155.522Z" fill="black"/>
<path d="M219.223 172.156C218.956 171.57 218.676 170.908 218.434 170.17L231.376 170.87C231.3 171.621 231.236 172.321 231.173 172.97C228.411 172.754 222.659 172.372 219.223 172.156Z" fill="black"/>
<path d="M204.766 184.729C204.766 184.729 213.063 179.384 212.885 176.903C212.694 174.421 208.978 170.03 206.675 171.176C204.384 172.321 200.184 178.811 200.184 178.811C200.184 178.811 204.766 180.351 204.766 184.729Z" fill="black"/>
<path d="M205.338 212.892L221.119 221.648C221.119 221.648 211.002 233.649 208.011 234.094C205.02 234.54 195.73 220.859 196.366 218.886C197.003 216.901 205.338 212.892 205.338 212.892Z" fill="black"/>
<path d="M85.7497 202.011H148.172V217.474L85.7497 217.092V202.011Z" fill="black"/>
<path d="M130.826 176.495H101.81V179.486H130.826V176.495Z" fill="black"/>
<path d="M130.826 184.386H101.81V187.376H130.826V184.386Z" fill="black"/>
<path d="M131.462 192.721H102.446V195.712H131.462V192.721Z" fill="black"/>
<path d="M103.872 217.207L106.544 217.219V202.011H103.872V217.207Z" fill="black"/>
<path d="M114.842 217.27L117.514 217.283V202.011H114.842V217.27Z" fill="black"/>
<path d="M125.125 202.011V217.334L127.797 217.347V202.011H125.125Z" fill="black"/>
<path d="M138.449 202.011H135.777V217.398L138.449 217.41V202.011Z" fill="black"/>
<path d="M93.5891 217.143L96.2616 217.156V202.011H93.5891V217.143Z" fill="black"/>
<path d="M107.41 220.528C107.41 220.528 116.025 231.155 117.502 230.773C118.991 230.391 126.117 220.528 126.117 220.528H107.41Z" fill="black"/>
<path d="M90.5475 125.145C90.5475 125.145 145.27 124.254 155.579 98.9286L166.651 100.838L160.669 127.563C160.669 127.563 110.909 139.016 90.5475 125.145Z" fill="black"/>
<path d="M145.143 220.083C145.143 220.083 156.597 250.88 156.597 255.335C156.597 259.789 155.502 266.025 155.502 266.025L145.78 258.262C145.78 258.262 150.361 241.336 145.143 220.083Z" fill="black"/>
<path d="M162.769 286.285C162.769 286.285 169.641 294.875 171.652 305.476L162.769 304.713C162.769 304.713 160.198 295.741 162.769 286.285Z" fill="black"/>
<path d="M170.15 350.845H178.931L174.452 341.428C174.452 341.428 174.159 349.064 170.15 350.845Z" fill="black"/>
<path d="M96.2616 223.493L111.813 235.647C111.813 235.647 102.141 262.716 100.741 265.261C99.3413 267.806 92.3419 270.861 92.3419 270.861C92.3419 270.861 102.981 246.884 96.2616 223.493Z" fill="black"/>
<path d="M83.6753 291.795L84.3752 307.512C84.3752 307.512 79.1829 305.54 74.2705 306.685C75.1487 303.249 83.6753 291.795 83.6753 291.795Z" fill="black"/>
<path d="M64.7895 341.555L67.0166 350.718H57.7264C57.7136 350.718 63.5168 348.873 64.7895 341.555Z" fill="black"/>
<path d="M208.724 134.18L218.434 148.752L206.535 165.869L185.702 144.234C185.702 144.234 201.94 142.834 208.724 134.18Z" fill="black"/>
<path d="M229.315 181.968C229.315 181.968 230.918 202.215 222.99 217.283L215.443 213.465C215.456 213.465 225.421 205.448 229.315 181.968Z" fill="black"/>
<path d="M54.8248 157.113L33.152 170.17L20.5529 157.113L36.7789 141.116C36.7789 141.116 51.4905 146.194 54.8248 157.113Z" fill="black"/>
<path d="M10.3465 181.968L23.2764 186.065L23.989 209.584L13.5662 215.272C13.5662 215.272 7.38125 195.712 10.3465 181.968Z" fill="black"/>
<path d="M87.8495 202.915H92.3419C92.3419 202.915 91.9601 214.127 91.9601 213.987C91.9474 213.847 90.1402 205.015 87.8495 202.915Z" fill="black"/>
<path d="M97.9669 202.915H102.459C102.459 202.915 102.077 214.127 102.077 213.987C102.065 213.847 100.258 205.015 97.9669 202.915Z" fill="black"/>
<path d="M108.504 203.208H112.997C112.997 203.208 112.615 214.42 112.615 214.28C112.615 214.14 110.795 205.308 108.504 203.208Z" fill="black"/>
<path d="M118.902 203.335H123.394C123.394 203.335 123.012 214.547 123.012 214.407C122.999 214.267 121.192 205.435 118.902 203.335Z" fill="black"/>
<path d="M129.49 203.335H133.969C133.969 203.335 133.588 214.547 133.588 214.407C133.6 214.267 131.781 205.435 129.49 203.335Z" fill="black"/>
<path d="M141.045 203.526H145.538C145.538 203.526 145.156 214.738 145.156 214.598C145.156 214.458 143.336 205.626 141.045 203.526Z" fill="black"/>
</g>
<g clip-path="url(#clip1)">
<path d="M156 13.1832C155.493 14.0778 155.487 15.1952 154.749 15.9821C153.396 17.4226 153.189 19.1626 153.202 21.0377C153.246 27.8643 153.232 34.6928 153.209 41.5212C153.204 43.1936 153.006 44.8441 151.956 46.2609C151.201 47.2779 150.276 48.1086 149.121 48.6436C147.867 49.2242 147.338 50.1389 147.339 51.521C147.343 54.3674 147.568 57.2266 147.159 60.0566C146.769 62.7405 146.516 65.4572 145.545 68.0334C145.087 69.2494 144.288 70.2372 143.515 71.2505C141.541 73.8339 139.566 76.3955 137.039 78.5189C133.746 81.2868 130.034 83.2075 125.927 84.4436C122.364 85.5153 118.726 86.1708 115.003 85.9681C105.674 85.4569 97.5995 82.2399 91.4028 75.0481C86.7824 69.6858 84.571 63.4799 84.5674 56.4671C84.5655 54.7983 84.5378 53.1277 84.5766 51.4608C84.608 50.1699 84.0985 49.2735 82.9134 48.702C79.9895 47.2888 78.7103 44.8825 78.7103 41.7348C78.7084 34.6635 78.6937 27.5941 78.7177 20.5228C78.7232 18.9271 78.3577 17.5468 77.3591 16.2249C75.0609 13.1868 75.742 9.25773 78.9392 7.42464C82.1714 5.57147 87.3159 6.89699 87.6759 11.8595C87.7571 12.9842 87.6703 14.0924 87.1978 15.1441C86.5628 16.5572 86.6735 17.9667 87.2107 19.3799C87.4359 19.9751 87.6057 20.5922 87.8402 21.1838C88.141 21.9451 88.4382 22.009 89.0271 21.4248C90.1291 20.3311 91.2163 19.2119 92.5232 18.3593C95.1758 16.6303 98.1127 15.8087 101.288 15.9164C102.024 15.9419 102.486 15.8726 102.511 14.9907C102.53 14.3645 102.89 13.8551 103.449 13.51C104.213 13.0371 104.693 12.2721 105.33 11.6659C108.422 8.73008 111.444 5.72119 114.479 2.7269C115.106 2.10796 115.658 1.41416 116.284 0.79339C117.172 -0.0866392 118.628 -0.245483 119.575 0.388065C120.481 0.994226 120.668 2.04223 120.214 3.3221C119.455 5.46192 118.754 7.62183 118.019 9.80547C118.327 10.0027 118.636 9.91867 118.922 9.91867C121.438 9.92597 123.952 9.92049 126.468 9.92414C127.806 9.92597 128.629 10.3769 128.934 11.257C129.377 12.5405 129.065 13.5264 128.031 14.3991C127.531 14.8209 127.117 15.3449 126.586 15.9036C127.834 15.9036 129.015 15.9438 130.195 15.8963C135.053 15.6991 139.085 17.4208 142.391 20.919C143.622 22.2208 143.773 22.1642 144.338 20.4918C144.502 20.0043 144.656 19.5113 144.825 19.0239C145.246 17.8097 145.313 16.6175 144.796 15.396C144.129 13.8167 144.011 12.1589 144.484 10.5175C145.523 6.90247 150.267 5.46923 153.481 7.7405C154.747 8.63514 155.473 9.83286 155.779 11.3136C155.812 11.4761 155.735 11.6933 156.004 11.728C156 12.2119 156 12.6975 156 13.1832ZM111.108 27.0062C110.958 26.3307 110.728 25.6588 111.053 24.9704C111.843 23.2962 112.11 21.4503 112.801 19.7396C113.526 17.943 113.502 17.932 111.592 17.9393C111.257 17.9412 110.923 17.9722 110.589 17.9886C108.114 17.9576 105.637 17.9284 103.161 17.8974C101.162 17.7604 99.1907 17.8937 97.2765 18.5199C92.5823 20.0591 89.5421 23.2925 87.6888 27.7292C87.6186 27.6343 87.5153 27.5485 87.4802 27.4407C86.2767 23.78 85.0861 20.1139 83.8733 16.4568C83.6942 15.9182 84.0025 15.7119 84.3588 15.4325C85.758 14.3371 86.2379 12.5058 85.5771 10.9338C84.8978 9.31616 83.29 8.40874 81.4164 8.58584C79.8843 8.73008 78.4445 10.0063 78.1399 11.4925C77.7652 13.3183 78.5441 15.0656 80.2147 15.8306C80.9088 16.1482 81.0324 16.5536 81.0306 17.2255C81.0103 25.5693 81.1007 33.9131 80.9567 42.2552C80.9217 44.2361 81.8372 45.4247 83.17 46.4216C84.1797 47.1775 85.4774 47.5189 86.7326 47.8256C86.7455 48.1561 86.7621 48.4847 86.7695 48.8152C86.8157 50.7049 86.6791 52.5964 86.8434 54.4861C86.6717 56.4543 86.7511 58.4188 87.039 60.367C87.9878 66.7736 91.0391 72.0629 95.8809 76.359C97.0106 77.3614 98.1533 78.3783 99.5709 79.0009C99.8275 79.3661 100.235 79.5359 100.605 79.7385C108.965 84.3121 117.663 84.995 126.662 81.8802C128.681 81.1809 130.643 80.3228 132.356 79.0064C132.722 78.9881 132.962 78.7252 133.231 78.5408C135.814 76.7662 138.086 74.6629 139.952 72.1542C143.867 66.8941 145.536 60.9895 145.073 54.4843C145.099 54.1556 145.141 53.8288 145.145 53.5002C145.165 51.6087 145.174 49.7171 145.187 47.8275C146.339 47.5974 147.509 47.2469 148.43 46.5987C149.735 45.6822 150.965 44.7072 150.941 42.7098C150.839 34.2436 150.908 25.7774 150.88 17.3113C150.878 16.5481 151.063 16.1373 151.795 15.7867C153.407 15.0181 154.155 13.2599 153.778 11.4834C153.461 9.98805 152.035 8.73373 150.489 8.5895C148.617 8.41605 147.016 9.32711 146.339 10.9521C145.695 12.4949 146.154 14.3389 147.522 15.3686C148.05 15.7667 148.163 16.1172 147.954 16.7416C146.815 20.1376 145.724 23.5482 144.617 26.9551C144.524 27.2417 144.473 27.5485 144.214 27.7548C144.115 27.5338 144.011 27.3166 143.915 27.0938C141.298 20.9263 135.524 17.4226 128.76 17.8992C127.627 17.8846 126.492 17.9047 125.362 17.8426C124.744 17.8079 124.28 18.0489 123.895 18.4469C123.025 19.3397 122.187 20.2636 121.336 21.1746C119.348 22.9511 117.349 24.724 115.593 26.7305C114.253 28.2642 112.562 28.4175 111.108 27.0062ZM116.332 7.51776C116.839 6.01696 117.347 4.51799 117.855 3.0172C117.999 2.87113 118.196 2.65021 117.94 2.54249C117.722 2.4512 117.561 2.73237 117.478 2.95512C113.986 6.40768 110.493 9.86024 107.001 13.3128C106.608 13.5429 106.305 13.8642 106.061 14.2421C105.823 14.4795 105.583 14.7168 105.345 14.9524C105.092 15.1075 104.725 15.27 104.797 15.5768C104.861 15.8543 105.186 15.6808 105.402 15.6188C105.829 15.6334 106.257 15.6608 106.683 15.6626C109.956 15.679 113.229 15.69 116.503 15.7028C116.535 16.0442 116.367 16.34 116.276 16.654C115.909 17.943 115.32 19.1644 115.073 20.49C114.944 20.8734 114.814 21.2568 114.685 21.6402C114.095 22.8598 113.788 24.1689 113.319 25.4269C113.395 25.4671 113.471 25.5072 113.544 25.5492C113.79 25.2662 114.035 24.9851 114.281 24.7021C118.342 20.689 122.403 16.6759 126.464 12.6646C126.739 11.9654 126.115 12.3305 125.98 12.3305C123.3 12.305 120.62 12.2977 117.938 12.3177C117.061 12.3251 116.177 12.1991 115.305 12.4036C115.167 12.3652 115.029 12.3269 114.89 12.2885C114.877 12.1553 114.866 12.022 114.853 11.8887C115.243 10.7403 115.632 9.59185 116.02 8.44161C116.243 8.17139 116.326 7.85735 116.332 7.51776Z" fill="black"/>
<path d="M87.6883 27.7319C89.5416 23.2934 92.58 20.0599 97.276 18.5226C99.1884 17.8964 101.162 17.7613 103.161 17.9C103.166 24.6208 103.172 31.3415 103.177 38.0622C100.911 38.075 98.6438 38.0859 96.377 38.1005C93.9607 38.1151 92.5892 39.4443 92.5818 41.8032C92.5708 45.0184 92.5708 48.2318 92.5818 51.447C92.5911 53.8626 93.9644 55.2118 96.4195 55.2136C109.448 55.2191 122.475 55.2191 135.503 55.2136C137.96 55.2118 139.333 53.8607 139.341 51.4489C139.35 48.2647 139.348 45.0805 139.342 41.8964C139.339 39.4133 137.997 38.1115 135.457 38.1005C133.221 38.0896 130.984 38.075 128.749 38.0622C128.754 31.3415 128.76 24.6226 128.765 17.9019C135.529 17.4272 141.303 20.9309 143.92 27.0965C144.014 27.3193 144.12 27.5365 144.219 27.7575C145.355 30.9142 145.142 34.197 145.146 37.4615C145.15 40.9177 145.176 44.3739 145.192 47.8302C145.179 49.7217 145.17 51.6132 145.15 53.5029C145.146 53.8315 145.104 54.1583 145.078 54.487C144.6 54.6458 144.264 55.0055 143.893 55.3122C140.234 58.3412 136.585 61.3793 132.911 64.39C132.415 64.7972 132.206 65.2116 132.21 65.8525C132.236 69.913 132.221 73.9754 132.227 78.036C132.227 78.3628 132.156 78.706 132.361 79.0091C130.648 80.3255 128.688 81.1836 126.667 81.8829C117.668 84.9977 108.97 84.3148 100.61 79.7413C100.241 79.5386 99.8326 79.3688 99.576 79.0036C99.6185 78.7991 99.6997 78.5965 99.6997 78.392C99.7071 74.1197 99.696 69.8455 99.7163 65.5732C99.7181 65.0382 99.4431 64.7479 99.0813 64.4485C96.521 62.3379 93.9847 60.198 91.4023 58.1166C89.8924 56.8988 88.5098 55.5204 86.8466 54.4906C86.6842 52.6028 86.8189 50.7094 86.7728 48.8197C86.7654 48.4893 86.7488 48.1606 86.7358 47.8302C86.7525 47.4687 86.782 47.1071 86.782 46.7456C86.7857 42.0004 86.7838 37.2534 86.7875 32.5082C86.7875 32.1174 86.8411 31.7304 86.8817 31.3397C87.0072 30.1018 87.4908 28.9497 87.6883 27.7319ZM115.881 68.1092C118.794 68.1092 121.705 68.0873 124.618 68.1256C125.314 68.1347 125.528 67.9339 125.485 67.2547C125.428 66.3491 125.43 65.4344 125.485 64.527C125.528 63.8368 125.35 63.5648 124.588 63.5995C123.211 63.6634 121.83 63.6177 120.451 63.6177C116.067 63.6177 111.685 63.6342 107.301 63.6013C106.609 63.5958 106.393 63.7821 106.435 64.4649C106.494 65.4015 106.5 66.3473 106.434 67.2839C106.382 68.0087 106.679 68.1311 107.331 68.1238C110.181 68.0909 113.031 68.1092 115.881 68.1092Z" fill="black"/>
<path d="M128.762 17.9C128.756 24.6207 128.751 31.3396 128.745 38.0604C124.422 38.0731 120.101 38.095 115.778 38.095C111.578 38.095 107.379 38.0731 103.177 38.0604C103.172 31.3396 103.166 24.6189 103.161 17.8982C105.636 17.9292 108.113 17.9585 110.589 17.9895C110.578 22.4681 110.567 26.9468 110.561 31.4254C110.561 31.6628 110.563 31.9148 110.738 32.1138C110.971 33.1946 111.737 33.8684 112.675 34.2627C114.892 35.1957 117.177 35.192 119.366 34.2116C120.558 33.6766 121.354 32.6834 121.356 31.2757C121.358 27.9072 121.345 24.5404 121.337 21.1718C122.188 20.2608 123.025 19.3369 123.896 18.4441C124.284 18.0479 124.745 17.8069 125.363 17.8398C126.493 17.9037 127.628 17.8854 128.762 17.9Z" fill="black"/>
<path d="M87.6884 27.7319C87.489 28.9479 87.0072 30.1018 86.8762 31.3378C86.8355 31.7267 86.782 32.1138 86.782 32.5063C86.7802 37.2516 86.7802 41.9986 86.7765 46.7438C86.7765 47.1053 86.7469 47.4668 86.7303 47.8283C85.4751 47.5234 84.1774 47.1802 83.1677 46.4243C81.8331 45.4256 80.9194 44.2388 80.9545 42.2579C81.1003 33.9177 81.0098 25.572 81.0283 17.2282C81.0301 16.5545 80.9065 16.151 80.2124 15.8333C78.5419 15.0701 77.7629 13.3228 78.1376 11.4952C78.4422 10.009 79.882 8.73279 81.4141 8.58855C83.2877 8.41145 84.8936 9.31886 85.5748 10.9365C86.2356 12.5085 85.7557 14.3398 84.3565 15.4352C84.0002 15.7146 83.692 15.9209 83.871 16.4595C85.0838 20.1184 86.2744 23.7827 87.4779 27.4434C87.5167 27.5512 87.6182 27.637 87.6884 27.7319Z" fill="black"/>
<path d="M145.188 47.8283C145.172 44.3721 145.146 40.9159 145.142 37.4597C145.139 34.1952 145.349 30.9124 144.216 27.7556C144.474 27.5511 144.524 27.2426 144.618 26.9559C145.726 23.5508 146.818 20.1384 147.956 16.7425C148.166 16.1162 148.052 15.7675 147.524 15.3695C146.156 14.3397 145.696 12.4957 146.34 10.9529C147.018 9.32796 148.618 8.41507 150.49 8.59034C152.039 8.73458 153.464 9.9889 153.779 11.4842C154.156 13.2607 153.408 15.0189 151.797 15.7876C151.064 16.1381 150.878 16.5489 150.881 17.3121C150.909 25.7783 150.841 34.2463 150.942 42.7106C150.966 44.7081 149.737 45.683 148.432 46.5996C147.511 47.2459 146.34 47.5983 145.188 47.8283Z" fill="black"/>
<path d="M86.8429 54.4869C88.506 55.5167 89.8886 56.8952 91.3986 58.113C93.981 60.1943 96.5173 62.336 99.0776 64.4448C99.4412 64.7442 99.7163 65.0363 99.7126 65.5695C99.6923 69.8418 99.7034 74.1141 99.696 78.3883C99.696 78.5928 99.6148 78.7955 99.5723 78.9999C98.1528 78.3792 97.0102 77.3604 95.8823 76.358C91.0405 72.062 87.9892 66.7727 87.0404 60.366C86.7506 58.4215 86.6712 56.457 86.8429 54.4869Z" fill="black"/>
<path d="M132.358 79.0072C132.153 78.7041 132.223 78.3627 132.223 78.0341C132.219 73.9735 132.232 69.9112 132.206 65.8506C132.202 65.2098 132.411 64.7953 132.908 64.3882C136.581 61.3774 140.23 58.3375 143.889 55.3104C144.26 55.0036 144.596 54.644 145.074 54.4851C145.536 60.9904 143.867 66.895 139.953 72.1551C138.085 74.6637 135.815 76.767 133.232 78.5416C132.963 78.7261 132.723 78.989 132.358 79.0072Z" fill="black"/>
<path d="M116.019 8.43881C115.63 9.58723 115.24 10.7357 114.853 11.8859C114.544 12.0484 114.57 12.1798 114.89 12.2857C115.028 12.3241 115.167 12.3624 115.305 12.4008C115.593 12.7367 115.984 12.5998 116.333 12.6016C119.709 12.629 123.087 12.6418 126.464 12.66C122.403 16.6731 118.342 20.6862 114.281 24.6974C113.767 24.6481 113.943 24.3469 114.017 24.0475C114.22 23.2386 114.694 22.5028 114.685 21.6356C114.814 21.2522 114.943 20.8688 115.072 20.4853C115.864 19.0539 116.171 17.4509 116.725 15.9355C116.765 15.8223 116.634 15.7274 116.503 15.6981C113.23 15.6854 109.957 15.6744 106.683 15.658C106.256 15.6561 105.828 15.6306 105.402 15.6142C105.383 15.3932 105.365 15.1705 105.346 14.9496C105.584 14.7122 105.824 14.4749 106.063 14.2393C106.613 14.1627 106.926 13.8541 107.002 13.31C110.495 9.85745 113.985 6.40306 117.478 2.9505C117.603 2.97058 117.729 2.99249 117.856 3.01258C117.348 4.51337 116.841 6.01234 116.333 7.51314C115.997 7.74867 115.853 8.04262 116.019 8.43881Z" fill="black"/>
<path d="M121.336 21.1718C121.343 24.5404 121.356 27.9071 121.354 31.2757C121.354 32.6834 120.557 33.6766 119.364 34.2116C117.175 35.192 114.89 35.1957 112.673 34.2627C111.735 33.8683 110.969 33.1928 110.736 32.1138C111.104 30.7608 110.79 29.3824 110.899 28.0185C110.927 27.6753 110.764 27.2882 111.106 27.0052C112.562 28.4165 114.251 28.2632 115.593 26.7277C117.348 24.7211 119.348 22.9501 121.336 21.1718Z" fill="black"/>
<path d="M111.107 27.0052C110.768 27.2882 110.928 27.6753 110.901 28.0185C110.792 29.3805 111.106 30.7608 110.738 32.1137C110.561 31.9147 110.561 31.6628 110.561 31.4254C110.567 26.9468 110.578 22.4681 110.589 17.9895C110.923 17.973 111.259 17.942 111.593 17.9402C113.503 17.931 113.527 17.9438 112.802 19.7404C112.112 21.4512 111.844 23.2952 111.054 24.9713C110.727 25.6578 110.956 26.3315 111.107 27.0052Z" fill="black"/>
<path d="M126.462 12.66C123.086 12.6417 119.708 12.6289 116.331 12.6016C115.984 12.5979 115.591 12.7367 115.303 12.4007C116.174 12.1944 117.059 12.3204 117.935 12.3149C120.616 12.2948 123.296 12.3003 125.978 12.3277C126.113 12.3277 126.737 11.9607 126.462 12.66Z" fill="black"/>
<path d="M116.501 15.7018C116.632 15.731 116.763 15.8259 116.723 15.9391C116.169 17.4545 115.862 19.0576 115.071 20.489C115.318 19.1635 115.907 17.942 116.274 16.653C116.365 16.3372 116.533 16.0432 116.501 15.7018Z" fill="black"/>
<path d="M114.683 21.6374C114.692 22.5028 114.218 23.2386 114.015 24.0493C113.941 24.3469 113.766 24.6499 114.279 24.6992C114.033 24.9822 113.788 25.2634 113.542 25.5464C113.466 25.5062 113.391 25.4661 113.317 25.4241C113.786 24.1661 114.092 22.8588 114.683 21.6374Z" fill="black"/>
<path d="M107 13.3118C106.925 13.8577 106.611 14.1663 106.061 14.2411C106.304 13.8632 106.607 13.5437 107 13.3118Z" fill="black"/>
<path d="M105.344 14.9532C105.363 15.1741 105.381 15.3969 105.4 15.6178C105.184 15.6817 104.859 15.8533 104.794 15.5758C104.726 15.2709 105.092 15.1084 105.344 14.9532Z" fill="black"/>
<path d="M116.019 8.4388C115.853 8.04078 115.997 7.74683 116.331 7.51495C116.326 7.85638 116.243 8.17041 116.019 8.4388Z" fill="black"/>
<path d="M117.854 3.01437C117.729 2.99429 117.603 2.97238 117.476 2.9523C117.559 2.72772 117.719 2.44838 117.937 2.53967C118.196 2.64739 117.998 2.87014 117.854 3.01437Z" fill="black"/>
<path d="M114.89 12.2857C114.57 12.1798 114.544 12.0484 114.853 11.8859C114.866 12.0191 114.877 12.1524 114.89 12.2857Z" fill="black"/>
<path d="M103.177 38.0604C107.377 38.0731 111.576 38.0951 115.778 38.0951C120.101 38.0951 124.422 38.0731 128.745 38.0604C130.98 38.0731 133.218 38.0877 135.453 38.0987C137.993 38.1097 139.335 39.4114 139.339 41.8945C139.344 45.0787 139.348 48.2629 139.337 51.447C139.33 53.8607 137.956 55.2118 135.499 55.2118C122.471 55.2173 109.444 55.2173 96.4158 55.2118C93.9607 55.21 92.5874 53.8607 92.5781 51.4452C92.5671 48.23 92.5689 45.0166 92.5781 41.8014C92.5855 39.4407 93.957 38.1133 96.3733 38.0987C98.6438 38.0859 100.911 38.0731 103.177 38.0604ZM134.678 46.7182C134.672 44.8833 134.283 43.1653 133.092 41.6992C131.647 39.919 129.458 39.9208 127.986 41.6955C126.004 44.0891 125.838 48.3943 127.625 51.1202C129.197 53.5211 131.872 53.5266 133.45 51.1275C134.331 49.7892 134.676 48.2994 134.678 46.7182ZM97.2391 46.8077C97.2649 48.482 97.6415 50.2384 98.9133 51.6935C100.351 53.3367 102.409 53.3312 103.846 51.7045C106.103 49.1465 106.088 44.122 103.814 41.5677C102.35 39.9227 100.198 39.9738 98.8302 41.6882C97.6765 43.1342 97.2594 44.8139 97.2391 46.8077Z" fill="black"/>
<path d="M115.881 68.1091C113.031 68.1091 110.179 68.0908 107.329 68.1219C106.677 68.1292 106.38 68.0069 106.432 67.282C106.498 66.3472 106.493 65.3996 106.434 64.463C106.391 63.7802 106.607 63.5939 107.299 63.5994C111.683 63.6305 116.066 63.6158 120.45 63.6158C121.828 63.6158 123.211 63.6615 124.586 63.5976C125.349 63.5629 125.524 63.8349 125.483 64.5251C125.428 65.4325 125.426 66.3472 125.483 67.2528C125.526 67.932 125.312 68.1328 124.616 68.1237C121.707 68.0872 118.794 68.1091 115.881 68.1091Z" fill="black"/>
<path d="M134.678 46.7182C134.676 48.2993 134.331 49.7892 133.45 51.1275C131.87 53.5266 129.197 53.5193 127.625 51.1202C125.838 48.3943 126.004 44.0891 127.986 41.6955C129.456 39.9208 131.647 39.919 133.092 41.6991C134.283 43.1652 134.672 44.8833 134.678 46.7182Z" fill="#30CDF2"/>
<path d="M97.2391 46.8077C97.2594 44.814 97.6766 43.1342 98.8303 41.6882C100.198 39.9738 102.35 39.9208 103.814 41.5677C106.088 44.122 106.103 49.1465 103.846 51.7045C102.411 53.3312 100.351 53.3349 98.9133 51.6935C97.6415 50.2384 97.2668 48.482 97.2391 46.8077Z" fill="#30CEF2"/>
</g>
<defs>
<clipPath id="clip0">
<rect width="232" height="276.542" fill="white" transform="translate(0 75.6396)"/>
</clipPath>
<clipPath id="clip1">
<rect width="80" height="86" fill="white" transform="translate(76)"/>
</clipPath>
</defs>
</svg>
