<svg width="243" height="369" viewBox="0 0 243 369" fill="none" xmlns="http://www.w3.org/2000/svg">
<g clip-path="url(#clip0)">
<path d="M93.5063 91.0446L95.5035 78.862H146.031L150.132 91.0446C150.119 91.0446 108.778 101.723 93.5063 91.0446Z" fill="#1C1C1C"/>
<path d="M122.398 246.263C122.358 246.223 124.821 245.424 124.821 245.424L148.521 227.25L147.656 223.056L99.298 223.389L98.326 230.512L122.398 246.263Z" fill="#1C1C1C"/>
<path d="M88.9395 272.186C86.3432 272.652 79.4464 286.192 79.4464 286.192L75.8249 293.062C75.8249 293.062 70.6989 307.202 70.6989 307.402C70.6989 307.602 62.2443 321.715 62.2443 321.715L61.5919 355.267H68.9281C72.3632 339.756 83.241 328.705 83.241 328.705L89.299 300.052L89.6984 295.752C89.6984 295.752 97.7802 284.235 97.5272 281.905C97.2609 279.575 91.5358 271.72 88.9395 272.186Z" fill="#3B3B3B"/>
<path d="M61.8449 342.285L61.8049 344.482H72.6561C73.0156 343.723 73.3751 342.991 73.7345 342.285H61.8449Z" fill="#1C1C1C"/>
<path d="M70.8454 348.876H61.7251L61.6851 351.073H70.0998C70.3261 350.327 70.5791 349.595 70.8454 348.876Z" fill="#1C1C1C"/>
<path d="M61.9781 335.695L61.9381 337.892H76.2643C76.7569 337.106 77.2362 336.387 77.7022 335.695H61.9781Z" fill="#1C1C1C"/>
<path d="M62.0979 329.304L62.0579 331.501H80.8178C81.6166 330.515 82.269 329.77 82.6951 329.304H62.0979Z" fill="#1C1C1C"/>
<path d="M81.7098 281.971C85.4112 283.529 90.484 285.673 95.0108 287.577C95.2505 287.177 95.4768 286.791 95.6899 286.405L82.5486 280.507C82.2557 281.013 81.9761 281.505 81.7098 281.971Z" fill="#1C1C1C"/>
<path d="M92.1749 292.104C92.4146 291.744 92.6675 291.358 92.9205 290.972L79.9923 285.167C79.6595 285.793 79.4598 286.192 79.4598 286.192L79.2201 286.645C82.9481 288.216 87.8344 290.28 92.1749 292.104Z" fill="#1C1C1C"/>
<path d="M89.6585 296.271L89.7117 295.752C89.7117 295.752 89.8981 295.485 90.1911 295.059L77.7289 289.467L76.97 290.919C80.7779 292.53 85.5444 294.54 89.6585 296.271Z" fill="#1C1C1C"/>
<path d="M88.9795 301.597L89.2591 300.305L75.4521 294.101C75.3057 294.527 75.106 295.046 74.8929 295.645C79.0736 297.416 84.5059 299.706 88.9795 301.597Z" fill="#1C1C1C"/>
<path d="M97.9133 225.053L122.372 246.223C122.372 246.223 107.193 285.167 104.997 287.164C102.8 289.161 89.725 295.752 89.725 295.752C89.725 295.752 94.0122 285.074 93.8125 283.263C93.6128 281.466 87.9143 276.872 87.0222 277.378C86.1169 277.884 79.2334 286.458 79.2334 286.458C79.2334 286.458 77.0365 272.385 77.5425 268.684C78.0484 264.996 92.4145 222.457 92.4145 222.457L97.9133 225.053Z" fill="#CBCBCB"/>
<path d="M75.8249 293.062C75.8249 293.062 78.8206 307.042 79.1268 307.042C79.4198 307.042 89.3123 300.052 89.3123 300.052C89.3123 300.052 91.2162 322.62 90.5106 323.019C89.8049 323.419 83.2543 328.705 83.2543 328.705C83.2543 328.705 78.0351 323.113 76.2376 321.981C74.4402 320.849 62.2576 321.715 62.2576 321.715C62.2576 321.715 67.3038 302.476 75.8249 293.062Z" fill="#CBCBCB"/>
<path d="M68.9414 355.267L72.23 368.142H55.6537L61.5919 355.267H68.9414Z" fill="#CBCBCB"/>
<path d="M182.512 321.755C182.512 321.755 174.058 307.642 174.058 307.442C174.058 307.242 168.932 293.102 168.932 293.102L165.31 286.232C165.31 286.232 158.414 272.692 155.817 272.226C153.221 271.76 147.496 279.615 147.23 281.945C146.963 284.275 155.058 295.792 155.058 295.792L155.458 300.092L161.516 328.745C161.516 328.745 172.394 339.796 175.829 355.307H183.165L182.512 321.755Z" fill="#3B3B3B"/>
<path d="M182.912 342.325L182.952 344.522H172.101C171.741 343.763 171.382 343.031 171.022 342.325H182.912Z" fill="#1C1C1C"/>
<path d="M173.925 348.916H183.045L183.085 351.113H174.67C174.431 350.367 174.191 349.635 173.925 348.916Z" fill="#1C1C1C"/>
<path d="M182.779 335.735L182.819 337.932H168.492C168 337.146 167.52 336.427 167.054 335.735H182.779Z" fill="#1C1C1C"/>
<path d="M182.659 329.344L182.699 331.541H163.939C163.14 330.555 162.488 329.81 162.062 329.344H182.659Z" fill="#1C1C1C"/>
<path d="M163.047 282.011C159.346 283.569 154.273 285.713 149.759 287.617C149.52 287.217 149.293 286.831 149.08 286.445L162.221 280.547C162.501 281.053 162.781 281.545 163.047 282.011Z" fill="#1C1C1C"/>
<path d="M152.595 292.144C152.356 291.784 152.103 291.398 151.85 291.012L164.778 285.207C165.111 285.833 165.31 286.232 165.31 286.232L165.55 286.685C161.822 288.256 156.922 290.32 152.595 292.144Z" fill="#1C1C1C"/>
<path d="M155.098 296.311L155.045 295.792C155.045 295.792 154.859 295.525 154.566 295.099L167.028 289.507L167.787 290.959C163.979 292.57 159.212 294.58 155.098 296.311Z" fill="#1C1C1C"/>
<path d="M155.777 301.637L155.498 300.345L169.305 294.141C169.451 294.567 169.651 295.086 169.864 295.685C165.683 297.456 160.264 299.746 155.777 301.637Z" fill="#1C1C1C"/>
<path d="M146.857 225.093L122.398 246.263C122.398 246.263 137.577 285.207 139.774 287.204C141.97 289.201 155.045 295.792 155.045 295.792C155.045 295.792 150.758 285.114 150.958 283.303C151.157 281.506 156.842 276.912 157.748 277.405C158.64 277.911 165.537 286.498 165.537 286.498C165.537 286.498 167.734 272.412 167.241 268.724C166.748 265.036 152.356 222.497 152.356 222.497L146.857 225.093Z" fill="#CBCBCB"/>
<path d="M168.932 293.089C168.932 293.089 165.936 307.069 165.643 307.069C165.35 307.069 155.458 300.079 155.458 300.079C155.458 300.079 153.554 322.647 154.259 323.046C154.965 323.446 161.516 328.731 161.516 328.731C161.516 328.731 166.735 323.139 168.532 322.008C170.33 320.876 182.512 321.741 182.512 321.741C182.512 321.741 177.453 302.516 168.932 293.089Z" fill="#CBCBCB"/>
<path d="M175.815 355.307L172.527 368.182H189.103L183.165 355.307H175.815Z" fill="#CBCBCB"/>
<path d="M89.7117 185.816C89.7117 185.816 93.6661 201.886 92.7341 213.869H151.85C151.85 213.869 149.986 189.77 153.314 184.844C151.85 181.515 113.837 165.605 89.7117 185.816Z" fill="#1C1C1C"/>
<path d="M133.502 174.818H109.23V213.962H133.502V174.818Z" fill="#3B3B3B"/>
<path d="M178.079 169.665L175.283 170.597L102.187 166.031L67.4369 170.597L64.6409 169.665L50.2615 160.745L42.7655 131.653C42.7655 131.653 167.92 126.194 172.753 129.057C177.586 131.919 212.177 140.627 212.177 140.627L178.079 169.665Z" fill="#1C1C1C"/>
<path d="M177.147 97.6352L150.718 88.0489C142.929 93.8406 121.36 93.0417 121.36 93.0417C121.36 93.0417 99.7906 93.8406 92.0018 88.0489L65.5729 97.6352L54.1758 139.429L67.4369 170.518L87.9409 189.104C87.9409 189.104 103.186 178 121.36 177.761C139.534 178 154.779 189.104 154.779 189.104L175.283 170.518L188.544 139.429L177.147 97.6352Z" fill="#CBCBCB"/>
<path d="M87.9409 189.184C87.9409 189.184 96.4887 182.953 108.418 179.731C106.581 169.958 101.442 146.712 93.5995 142.531C83.6138 137.205 54.1758 139.509 54.1758 139.509L67.4369 170.597L87.9409 189.184Z" fill="#A4A4A4"/>
<path d="M154.779 189.184C154.779 189.184 146.231 182.953 134.301 179.731C136.139 169.958 141.278 146.712 149.12 142.531C159.106 137.205 188.544 139.509 188.544 139.509L175.283 170.597L154.779 189.184Z" fill="#A4A4A4"/>
<path d="M9.42654 228.648L11.3837 231.604L27.8935 222.457L27.2411 220.513L9.42654 228.648Z" fill="#1C1C1C"/>
<path d="M52.4584 141.093L64.6543 169.665L33.2858 186.801L27.6805 185.802L28.4926 192.992L28.8255 220.792L8.92062 229.979C8.92062 229.979 -3.78122 210.727 1.19833 183.978C1.53118 177.761 7.52262 155.353 7.52262 155.353L19.3723 136.113C19.3723 136.113 51.1536 138.031 52.4584 141.093Z" fill="#CBCBCB"/>
<path d="M65.5729 97.6351C65.5729 97.6351 66.9043 125.196 65.5729 130.788C64.2415 136.38 48.3975 143.836 42.9386 143.969C37.4798 144.102 19.3723 136.113 19.3723 136.113C19.3723 136.113 33.6186 113.745 41.8735 107.488C50.1283 101.23 65.5729 97.6351 65.5729 97.6351Z" fill="#3B3B3B"/>
<path d="M53.0974 101.603C51.6461 102.175 50.1683 102.801 48.7303 103.493L65.1335 131.933C65.3332 131.547 65.493 131.174 65.5862 130.814C65.7593 130.095 65.8791 129.017 65.9723 127.699L53.0974 101.603Z" fill="#1C1C1C"/>
<path d="M38.8511 110.217C37.9324 111.149 36.9738 112.174 36.0019 113.293L58.4764 137.871C59.3019 137.352 60.114 136.832 60.8463 136.286L38.8511 110.217Z" fill="#1C1C1C"/>
<path d="M52.4583 141.093L29.9705 120.869C29.1983 121.907 28.426 122.946 27.6938 123.957L49.1564 142.438C50.2215 142.052 51.3266 141.599 52.4583 141.093Z" fill="#1C1C1C"/>
<path d="M7.52261 155.353C7.52261 155.353 14.6458 164.539 15.2449 169.532C15.844 174.525 13.4475 180.583 12.0495 181.915C10.6515 183.246 1.19832 183.978 1.19832 183.978C1.19832 183.978 -0.0665354 172.461 3.6116e-05 168.933C0.0666076 165.405 7.52261 155.353 7.52261 155.353Z" fill="#3B3B3B"/>
<path d="M0.19975 173.1L15.0052 174.645C15.1384 173.926 15.2449 173.207 15.2982 172.475L0.039978 170.518C0.0799209 171.276 0.133178 172.155 0.19975 173.1Z" fill="#1C1C1C"/>
<path d="M2.80933 162.436L15.0318 168.414C14.7256 167.242 14.1664 165.924 13.4741 164.579L4.4603 159.786C3.91441 160.625 3.35521 161.53 2.80933 162.436Z" fill="#1C1C1C"/>
<path d="M13.3676 179.838C13.6472 179.225 13.9401 178.533 14.1931 177.76L0.652435 178.493C0.732321 179.278 0.798892 180.011 0.865464 180.69C3.76798 180.463 9.77273 180.064 13.3676 179.838Z" fill="#1C1C1C"/>
<path d="M28.4926 192.992C28.4926 192.992 19.7984 187.4 19.9981 184.804C20.1978 182.207 24.0856 177.614 26.4955 178.812C28.892 180.011 33.2857 186.801 33.2857 186.801C33.2857 186.801 28.4926 188.412 28.4926 192.992Z" fill="#1C1C1C"/>
<path d="M27.8935 222.457L11.3837 231.617C11.3837 231.617 21.9686 244.172 25.0975 244.638C28.2263 245.104 37.9457 230.791 37.28 228.728C36.6143 226.651 27.8935 222.457 27.8935 222.457Z" fill="#CBCBCB"/>
<path d="M233.306 228.648L231.336 231.604L214.826 222.457L215.479 220.513L233.306 228.648Z" fill="#1C1C1C"/>
<path d="M190.275 141.093L178.079 169.665L209.434 186.814L215.039 185.816L214.227 193.005L213.894 220.806L233.799 229.993C233.799 229.993 246.501 210.74 241.521 183.992C241.188 177.774 235.197 155.366 235.197 155.366L223.347 136.113C223.347 136.113 191.579 138.031 190.275 141.093Z" fill="#CBCBCB"/>
<path d="M177.147 97.6351C177.147 97.6351 175.815 125.196 177.147 130.788C178.478 136.38 194.322 143.836 199.781 143.969C205.24 144.102 223.347 136.113 223.347 136.113C223.347 136.113 209.101 113.745 200.846 107.488C192.591 101.23 177.147 97.6351 177.147 97.6351Z" fill="#3B3B3B"/>
<path d="M189.622 101.603C191.073 102.175 192.551 102.801 193.989 103.493L177.586 131.933C177.386 131.547 177.227 131.174 177.133 130.814C176.96 130.095 176.841 129.017 176.747 127.699L189.622 101.603Z" fill="#1C1C1C"/>
<path d="M203.868 110.217C204.787 111.149 205.746 112.174 206.718 113.293L184.243 137.871C183.418 137.352 182.606 136.832 181.873 136.286L203.868 110.217Z" fill="#1C1C1C"/>
<path d="M190.275 141.093L212.762 120.869C213.535 121.907 214.307 122.946 215.039 123.957L193.577 142.438C192.498 142.052 191.393 141.599 190.275 141.093Z" fill="#1C1C1C"/>
<path d="M235.197 155.353C235.197 155.353 228.074 164.539 227.475 169.532C226.876 174.525 229.272 180.583 230.67 181.915C232.068 183.246 241.521 183.978 241.521 183.978C241.521 183.978 242.786 172.461 242.72 168.933C242.653 165.405 235.197 155.353 235.197 155.353Z" fill="#3B3B3B"/>
<path d="M242.533 173.1L227.728 174.645C227.595 173.926 227.488 173.207 227.435 172.475L242.693 170.518C242.653 171.276 242.6 172.155 242.533 173.1Z" fill="#1C1C1C"/>
<path d="M239.91 162.436L227.688 168.414C227.994 167.242 228.553 165.924 229.246 164.579L238.259 159.786C238.805 160.625 239.378 161.53 239.91 162.436Z" fill="#1C1C1C"/>
<path d="M229.352 179.838C229.072 179.225 228.78 178.533 228.527 177.76L242.067 178.493C241.987 179.278 241.921 180.011 241.854 180.69C238.965 180.463 232.947 180.064 229.352 179.838Z" fill="#1C1C1C"/>
<path d="M214.227 192.992C214.227 192.992 222.908 187.4 222.722 184.804C222.522 182.207 218.634 177.614 216.224 178.812C213.828 180.011 209.434 186.801 209.434 186.801C209.434 186.801 214.227 188.412 214.227 192.992Z" fill="#1C1C1C"/>
<path d="M214.826 222.457L231.336 231.617C231.336 231.617 220.751 244.172 217.622 244.638C214.493 245.104 204.774 230.791 205.44 228.728C206.105 226.651 214.826 222.457 214.826 222.457Z" fill="#CBCBCB"/>
<path d="M89.7117 211.073H155.018V227.25L89.7117 226.85V211.073Z" fill="#CBCBCB"/>
<path d="M136.871 184.378H106.514V187.507H136.871V184.378Z" fill="#1C1C1C"/>
<path d="M136.871 192.633H106.514V195.761H136.871V192.633Z" fill="#1C1C1C"/>
<path d="M137.537 201.353H107.18V204.482H137.537V201.353Z" fill="#1C1C1C"/>
<path d="M108.671 226.97L111.467 226.984V211.073H108.671V226.97Z" fill="#A4A4A4"/>
<path d="M120.148 227.037L122.944 227.05V211.073H120.148V227.037Z" fill="#A4A4A4"/>
<path d="M130.906 211.073V227.103L133.702 227.117V211.073H130.906Z" fill="#A4A4A4"/>
<path d="M144.846 211.073H142.05V227.17L144.846 227.183V211.073Z" fill="#A4A4A4"/>
<path d="M97.9133 226.904L100.709 226.917V211.073H97.9133V226.904Z" fill="#A4A4A4"/>
<path d="M112.373 230.445C112.373 230.445 121.386 241.563 122.931 241.163C124.489 240.764 131.945 230.445 131.945 230.445H112.373Z" fill="#3B3B3B"/>
<path d="M94.7312 130.655C94.7312 130.655 151.983 129.723 162.767 103.227L174.351 105.224L168.093 133.184C168.093 133.184 116.034 145.167 94.7312 130.655Z" fill="#F2F2F2"/>
<path d="M151.85 229.979C151.85 229.979 163.832 262.2 163.832 266.86C163.832 271.52 162.687 278.044 162.687 278.044L152.515 269.922C152.515 269.922 157.308 252.214 151.85 229.979Z" fill="#F2F2F2"/>
<path d="M170.29 299.24C170.29 299.24 177.48 308.227 179.583 319.318L170.29 318.519C170.29 318.519 167.6 309.133 170.29 299.24Z" fill="#F2F2F2"/>
<path d="M178.012 366.784H187.199L182.512 356.931C182.512 356.931 182.206 364.92 178.012 366.784Z" fill="#F2F2F2"/>
<path d="M100.709 233.547L116.979 246.263C116.979 246.263 106.861 274.582 105.396 277.245C103.931 279.908 96.6085 283.103 96.6085 283.103C96.6085 283.103 107.739 258.019 100.709 233.547Z" fill="#F2F2F2"/>
<path d="M87.5415 305.005L88.2738 321.448C88.2738 321.448 82.8415 319.385 77.7022 320.583C78.6209 316.988 87.5415 305.005 87.5415 305.005Z" fill="#F2F2F2"/>
<path d="M67.7831 357.064L70.1131 366.65H60.3936C60.3803 366.65 66.4516 364.72 67.7831 357.064Z" fill="#F2F2F2"/>
<path d="M218.368 140.108L228.527 155.353L216.078 173.26L194.282 150.626C194.282 150.626 211.271 149.161 218.368 140.108Z" fill="#F2F2F2"/>
<path d="M239.91 190.103C239.91 190.103 241.588 211.286 233.293 227.05L225.398 223.056C225.411 223.056 235.836 214.668 239.91 190.103Z" fill="#F2F2F2"/>
<path d="M57.358 164.1L34.6837 177.761L21.5026 164.1L38.4783 147.364C38.4783 147.364 53.8696 152.676 57.358 164.1Z" fill="#F2F2F2"/>
<path d="M10.8245 190.103L24.3519 194.39L25.0975 218.995L14.1931 224.946C14.1931 224.946 7.72231 204.482 10.8245 190.103Z" fill="#F2F2F2"/>
<path d="M91.9086 212.018H96.6085C96.6085 212.018 96.2091 223.748 96.2091 223.602C96.1958 223.455 94.3051 214.215 91.9086 212.018Z" fill="#F2F2F2"/>
<path d="M102.493 212.018H107.193C107.193 212.018 106.794 223.748 106.794 223.602C106.781 223.455 104.89 214.215 102.493 212.018Z" fill="#F2F2F2"/>
<path d="M113.518 212.324H118.218C118.218 212.324 117.818 224.054 117.818 223.908C117.818 223.761 115.914 214.521 113.518 212.324Z" fill="#F2F2F2"/>
<path d="M124.395 212.458H129.095C129.095 212.458 128.696 224.187 128.696 224.041C128.683 223.895 126.792 214.654 124.395 212.458Z" fill="#F2F2F2"/>
<path d="M135.473 212.458H140.16C140.16 212.458 139.76 224.187 139.76 224.041C139.773 223.895 137.87 214.654 135.473 212.458Z" fill="#F2F2F2"/>
<path d="M147.562 212.657H152.262C152.262 212.657 151.863 224.387 151.863 224.241C151.863 224.094 149.959 214.854 147.562 212.657Z" fill="#F2F2F2"/>
</g>
<g clip-path="url(#clip1)">
<path d="M162.982 13.835C162.454 14.7739 162.448 15.9465 161.68 16.7723C160.272 18.2841 160.057 20.1101 160.07 22.078C160.116 29.2422 160.101 36.4083 160.078 43.5745C160.072 45.3296 159.866 47.0617 158.773 48.5486C157.988 49.6159 157.026 50.4877 155.823 51.0491C154.519 51.6584 153.968 52.6184 153.97 54.0688C153.974 57.056 154.208 60.0566 153.781 63.0265C153.376 65.8431 153.113 68.6943 152.103 71.3979C151.626 72.674 150.795 73.7106 149.99 74.774C147.937 77.4852 145.881 80.1735 143.252 82.4019C139.825 85.3067 135.963 87.3224 131.689 88.6196C127.982 89.7443 124.196 90.4322 120.322 90.2195C110.615 89.683 102.213 86.3069 95.7653 78.7594C90.9577 73.1319 88.6567 66.6191 88.6528 59.2595C88.6509 57.5082 88.6221 55.755 88.6624 54.0056C88.6951 52.6509 88.165 51.7101 86.9318 51.1104C83.8894 49.6273 82.5583 47.102 82.5583 43.7986C82.5564 36.3777 82.541 28.9586 82.566 21.5376C82.5717 19.863 82.1914 18.4144 81.1523 17.0272C78.761 13.8388 79.4697 9.7154 82.7965 7.79166C86.1597 5.84684 91.5128 7.23791 91.8874 12.4458C91.9719 13.6261 91.8816 14.7892 91.3899 15.8928C90.7291 17.3759 90.8444 18.8551 91.4033 20.3382C91.6377 20.9628 91.8144 21.6104 92.0583 22.2312C92.3714 23.0302 92.6806 23.0973 93.2933 22.4842C94.44 21.3364 95.5713 20.1619 96.9312 19.2671C99.6913 17.4525 102.747 16.5903 106.051 16.7033C106.817 16.7302 107.297 16.6574 107.324 15.7319C107.344 15.0747 107.718 14.5401 108.3 14.178C109.095 13.6817 109.595 12.8789 110.257 12.2427C113.475 9.16166 116.619 6.00395 119.777 2.86158C120.43 2.21203 121.004 1.48392 121.655 0.832455C122.579 -0.091096 124.094 -0.257795 125.08 0.407085C126.023 1.04322 126.217 2.14305 125.744 3.48623C124.955 5.73187 124.225 7.99859 123.461 10.2902C123.781 10.4972 124.102 10.409 124.4 10.409C127.018 10.4167 129.634 10.4109 132.252 10.4148C133.644 10.4167 134.501 10.89 134.818 11.8135C135.279 13.1605 134.954 14.1952 133.879 15.1111C133.358 15.5537 132.928 16.1036 132.375 16.6899C133.673 16.6899 134.902 16.7321 136.13 16.6823C141.185 16.4753 145.38 18.2822 148.82 21.9534C150.101 23.3196 150.259 23.2602 150.847 21.505C151.017 20.9935 151.177 20.4761 151.354 19.9645C151.792 18.6903 151.861 17.4391 151.323 16.1573C150.63 14.4999 150.507 12.7601 150.998 11.0375C152.08 7.24366 157.016 5.73954 160.36 8.12314C161.678 9.06202 162.432 10.319 162.751 11.8729C162.786 12.0434 162.705 12.2715 162.986 12.3079C162.982 12.8156 162.982 13.3253 162.982 13.835ZM116.269 28.3416C116.114 27.6327 115.874 26.9275 116.212 26.2052C117.034 24.4481 117.312 22.511 118.031 20.7156C118.785 18.8302 118.761 18.8187 116.773 18.8264C116.425 18.8283 116.077 18.8609 115.73 18.8781C113.154 18.8455 110.576 18.8149 108 18.7823C105.92 18.6386 103.869 18.7785 101.877 19.4357C96.9927 21.0509 93.8292 24.4443 91.9008 29.1004C91.8278 29.0007 91.7203 28.9107 91.6838 28.7976C90.4314 24.9559 89.1926 21.1084 87.9306 17.2705C87.7443 16.7053 88.0651 16.4887 88.4358 16.1956C89.8917 15.0459 90.3911 13.1241 89.7035 11.4744C88.9966 9.77672 87.3237 8.82442 85.3741 9.01029C83.7799 9.16166 82.2817 10.501 81.9648 12.0607C81.5749 13.9768 82.3854 15.8105 84.1237 16.6133C84.8459 16.9467 84.9746 17.3721 84.9727 18.0772C84.9515 26.8337 85.0457 35.5901 84.8958 44.3447C84.8593 46.4237 85.812 47.671 87.1988 48.7172C88.2495 49.5105 89.5997 49.8688 90.9059 50.1907C90.9193 50.5375 90.9366 50.8824 90.9443 51.2292C90.9923 53.2123 90.8502 55.1974 91.0211 57.1805C90.8425 59.2461 90.9251 61.3078 91.2247 63.3522C92.212 70.0758 95.387 75.6266 100.425 80.1352C101.601 81.1871 102.79 82.2544 104.265 82.9077C104.532 83.291 104.956 83.4692 105.34 83.6818C114.039 88.4816 123.09 89.1982 132.453 85.9294C134.555 85.1955 136.597 84.295 138.379 82.9135C138.759 82.8943 139.009 82.6184 139.289 82.4249C141.977 80.5625 144.341 78.3551 146.283 75.7225C150.357 70.2022 152.093 64.0056 151.611 57.1786C151.638 56.8337 151.682 56.4907 151.686 56.1459C151.707 54.1608 151.717 52.1757 151.73 50.1926C152.929 49.9512 154.146 49.5833 155.105 48.9031C156.463 47.9412 157.742 46.918 157.717 44.8218C157.611 35.937 157.682 27.0521 157.654 18.1672C157.652 17.3663 157.844 16.9352 158.606 16.5673C160.283 15.7606 161.061 13.9155 160.669 12.0511C160.339 10.4818 158.856 9.16549 157.246 9.01412C155.299 8.83209 153.634 9.78821 152.929 11.4935C152.258 13.1126 152.737 15.0479 154.16 16.1285C154.709 16.5462 154.826 16.9141 154.609 17.5694C153.424 21.1333 152.289 24.7126 151.137 28.288C151.041 28.5888 150.987 28.9107 150.718 29.1272C150.614 28.8954 150.507 28.6674 150.407 28.4336C147.683 21.9611 141.675 18.2841 134.637 18.7842C133.458 18.7689 132.277 18.79 131.101 18.7248C130.458 18.6884 129.976 18.9413 129.574 19.359C128.67 20.296 127.798 21.2655 126.912 22.2217C124.844 24.086 122.763 25.9465 120.937 28.0523C119.542 29.6618 117.783 29.8227 116.269 28.3416ZM121.705 7.88938C122.233 6.31436 122.761 4.74126 123.29 3.16624C123.439 3.01295 123.645 2.78111 123.378 2.66806C123.151 2.57226 122.984 2.86733 122.898 3.10109C119.264 6.7244 115.63 10.3477 111.996 13.971C111.587 14.2124 111.272 14.5497 111.018 14.9463C110.77 15.1954 110.521 15.4445 110.273 15.6917C110.01 15.8545 109.627 16.0251 109.702 16.347C109.769 16.6382 110.108 16.4562 110.332 16.391C110.776 16.4064 111.222 16.4351 111.665 16.437C115.071 16.4543 118.476 16.4658 121.884 16.4792C121.916 16.8375 121.742 17.1479 121.647 17.4774C121.265 18.8302 120.652 20.1121 120.395 21.5031C120.261 21.9055 120.126 22.3079 119.992 22.7103C119.377 23.9902 119.058 25.364 118.57 26.6842C118.649 26.7264 118.728 26.7685 118.805 26.8126C119.06 26.5156 119.316 26.2205 119.571 25.9235C123.797 21.712 128.022 17.5004 132.248 13.2908C132.534 12.5569 131.885 12.9402 131.745 12.9402C128.956 12.9133 126.167 12.9057 123.376 12.9268C122.464 12.9344 121.544 12.8022 120.637 13.0168C120.493 12.9766 120.349 12.9363 120.205 12.8961C120.191 12.7562 120.18 12.6163 120.166 12.4765C120.572 11.2713 120.977 10.066 121.38 8.85891C121.613 8.57533 121.699 8.24577 121.705 7.88938Z" fill="#070706"/>
<path d="M91.9004 29.1033C93.8288 24.4454 96.9904 21.052 101.877 19.4386C103.867 18.7814 105.92 18.6396 108 18.7853C108.006 25.8383 108.012 32.8914 108.017 39.9445C105.659 39.9579 103.3 39.9694 100.941 39.9848C98.4271 40.0001 97 41.395 96.9923 43.8706C96.9808 47.2448 96.9808 50.6171 96.9923 53.9913C97.0019 56.5263 98.4309 57.9423 100.986 57.9442C114.542 57.9499 128.097 57.9499 141.653 57.9442C144.21 57.9423 145.639 56.5244 145.647 53.9932C145.656 50.6516 145.654 47.3099 145.649 43.9683C145.645 41.3624 144.248 39.9963 141.605 39.9848C139.279 39.9733 136.951 39.9579 134.625 39.9445C134.631 32.8914 134.637 25.8403 134.643 18.7872C141.68 18.289 147.688 21.9659 150.412 28.4365C150.51 28.6703 150.62 28.8983 150.723 29.1302C151.904 32.4431 151.684 35.8882 151.687 39.3141C151.691 42.9413 151.718 46.5684 151.735 50.1956C151.722 52.1806 151.712 54.1657 151.691 56.1488C151.687 56.4937 151.643 56.8367 151.616 57.1816C151.119 57.3483 150.769 57.7257 150.383 58.0477C146.576 61.2264 142.779 64.4148 138.957 67.5744C138.44 68.0017 138.223 68.4366 138.227 69.1092C138.254 73.3705 138.238 77.6338 138.244 81.8952C138.244 82.2382 138.171 82.5984 138.384 82.9165C136.602 84.298 134.562 85.1985 132.459 85.9324C123.095 89.2012 114.045 88.4846 105.346 83.6848C104.961 83.4721 104.537 83.2939 104.27 82.9107C104.314 82.6961 104.399 82.4834 104.399 82.2688C104.406 77.7852 104.395 73.2997 104.416 68.816C104.418 68.2546 104.132 67.95 103.755 67.6357C101.091 65.4207 98.4521 63.1751 95.7649 60.9907C94.1938 59.7127 92.7551 58.2661 91.0245 57.1854C90.8555 55.2042 90.9957 53.2172 90.9477 51.2341C90.94 50.8873 90.9227 50.5424 90.9093 50.1956C90.9266 49.8162 90.9573 49.4368 90.9573 49.0574C90.9612 44.0775 90.9592 39.0957 90.9631 34.1158C90.9631 33.7058 91.0188 33.2996 91.061 32.8895C91.1917 31.5904 91.6949 30.3814 91.9004 29.1033ZM121.236 71.4775C124.267 71.4775 127.296 71.4545 130.327 71.4947C131.051 71.5043 131.274 71.2935 131.23 70.5807C131.17 69.6304 131.172 68.6704 131.23 67.7181C131.274 66.9938 131.089 66.7083 130.296 66.7447C128.863 66.8118 127.427 66.7639 125.992 66.7639C121.43 66.7639 116.87 66.7811 112.308 66.7467C111.588 66.7409 111.363 66.9363 111.407 67.653C111.469 68.6359 111.475 69.6284 111.406 70.6114C111.352 71.3721 111.661 71.5005 112.339 71.4928C115.305 71.4583 118.27 71.4775 121.236 71.4775Z" fill="#CACACA"/>
<path d="M134.639 18.7852C134.633 25.8383 134.627 32.8895 134.622 39.9426C130.123 39.956 125.627 39.979 121.128 39.979C116.759 39.979 112.389 39.956 108.017 39.9426C108.012 32.8895 108.006 25.8364 108 18.7833C110.576 18.8159 113.153 18.8465 115.729 18.8791C115.718 23.5793 115.706 28.2794 115.7 32.9796C115.7 33.2286 115.702 33.4931 115.885 33.7019C116.127 34.8362 116.924 35.5433 117.9 35.9571C120.206 36.9363 122.584 36.9324 124.862 35.9035C126.103 35.3421 126.931 34.2997 126.933 32.8224C126.935 29.2873 126.921 25.754 126.914 22.2189C127.799 21.2627 128.669 20.2932 129.576 19.3562C129.979 18.9404 130.459 18.6875 131.103 18.722C132.278 18.7891 133.46 18.7699 134.639 18.7852Z" fill="#FDFCFC"/>
<path d="M91.9004 29.1033C91.693 30.3794 91.1916 31.5904 91.0553 32.8876C91.013 33.2957 90.9573 33.7019 90.9573 34.1139C90.9554 39.0938 90.9554 44.0756 90.9515 49.0555C90.9515 49.4348 90.9208 49.8142 90.9035 50.1936C89.5974 49.8736 88.2471 49.5134 87.1965 48.7201C85.8078 47.6721 84.857 46.4266 84.8935 44.3477C85.0453 35.595 84.9511 26.8366 84.9703 18.0801C84.9723 17.3731 84.8436 16.9496 84.1214 16.6162C82.3831 15.8153 81.5725 13.9816 81.9625 12.0636C82.2794 10.5039 83.7776 9.16459 85.3718 9.01322C87.3213 8.82736 88.9924 9.77965 89.7011 11.4773C90.3888 13.127 89.8894 15.0489 88.4334 16.1985C88.0627 16.4917 87.742 16.7082 87.9283 17.2734C89.1902 21.1133 90.4291 24.9588 91.6814 28.8006C91.7218 28.9136 91.8274 29.0037 91.9004 29.1033Z" fill="#737373"/>
<path d="M151.732 50.1937C151.714 46.5665 151.687 42.9394 151.684 39.3122C151.68 35.8863 151.899 32.4412 150.719 29.1283C150.988 28.9137 151.04 28.5898 151.138 28.289C152.291 24.7155 153.428 21.1344 154.611 17.5705C154.83 16.9133 154.711 16.5473 154.161 16.1296C152.738 15.0489 152.26 13.1137 152.93 11.4946C153.635 9.78927 155.3 8.83123 157.248 9.01517C158.859 9.16654 160.342 10.4829 160.671 12.0522C161.063 13.9165 160.285 15.7617 158.608 16.5684C157.845 16.9362 157.651 17.3674 157.655 18.1683C157.684 27.0532 157.613 35.9399 157.719 44.8229C157.744 46.9191 156.464 47.9423 155.106 48.9041C154.148 49.5824 152.93 49.9522 151.732 50.1937Z" fill="#727272"/>
<path d="M91.0207 57.1816C92.7513 58.2622 94.1899 59.7089 95.7611 60.9869C98.4482 63.1712 101.087 65.4188 103.751 67.6319C104.13 67.9461 104.416 68.2527 104.412 68.8122C104.391 73.2958 104.403 77.7794 104.395 82.265C104.395 82.4796 104.31 82.6923 104.266 82.9069C102.789 82.2554 101.6 81.1862 100.427 80.1343C95.3885 75.6258 92.2135 70.0749 91.2262 63.3514C90.9246 61.3107 90.8421 59.249 91.0207 57.1816Z" fill="#747474"/>
<path d="M138.38 82.9145C138.167 82.5964 138.24 82.2381 138.24 81.8932C138.236 77.6319 138.25 73.3686 138.223 69.1072C138.219 68.4347 138.436 67.9997 138.953 67.5724C142.775 64.4128 146.572 61.2226 150.379 58.0457C150.765 57.7238 151.115 57.3463 151.612 57.1796C152.093 64.0066 150.356 70.2032 146.284 75.7234C144.341 78.3561 141.978 80.5635 139.291 82.4259C139.01 82.6194 138.761 82.8953 138.38 82.9145Z" fill="#747474"/>
<path d="M121.38 8.85611C120.975 10.0613 120.569 11.2665 120.166 12.4737C119.845 12.6442 119.872 12.7822 120.204 12.8933C120.349 12.9335 120.493 12.9738 120.637 13.014C120.936 13.3666 121.343 13.2229 121.707 13.2248C125.22 13.2535 128.735 13.2669 132.248 13.2861C128.022 17.4976 123.796 21.7092 119.571 25.9188C119.037 25.8671 119.219 25.5509 119.296 25.2367C119.507 24.3879 120.001 23.6157 119.991 22.7055C120.126 22.3032 120.26 21.9008 120.395 21.4984C121.219 19.9962 121.537 18.3139 122.114 16.7235C122.156 16.6047 122.02 16.5051 121.883 16.4744C118.478 16.461 115.072 16.4495 111.665 16.4323C111.221 16.4304 110.776 16.4036 110.332 16.3863C110.313 16.1545 110.293 15.9207 110.274 15.6889C110.522 15.4398 110.772 15.1907 111.019 14.9435C111.592 14.863 111.918 14.5392 111.997 13.9682C115.631 10.3449 119.263 6.71968 122.897 3.09637C123.028 3.11745 123.159 3.14044 123.291 3.16152C122.763 4.73654 122.235 6.30964 121.707 7.88466C121.357 8.13183 121.207 8.44032 121.38 8.85611Z" fill="#F8C539"/>
<path d="M126.912 22.2189C126.919 25.754 126.933 29.2873 126.931 32.8225C126.931 34.2998 126.101 35.3421 124.86 35.9035C122.582 36.9325 120.204 36.9363 117.898 35.9572C116.922 35.5433 116.125 34.8343 115.883 33.7019C116.265 32.2821 115.939 30.8355 116.052 29.4042C116.081 29.044 115.912 28.6377 116.267 28.3408C117.782 29.8219 119.54 29.6609 120.936 28.0495C122.763 25.9437 124.843 24.0851 126.912 22.2189Z" fill="#ED3B1A"/>
<path d="M116.269 28.3407C115.915 28.6377 116.083 29.0439 116.054 29.4041C115.94 30.8335 116.267 32.2821 115.885 33.7019C115.7 33.493 115.7 33.2286 115.7 32.9795C115.706 28.2794 115.718 23.5792 115.729 18.8791C116.077 18.8619 116.426 18.8293 116.774 18.8274C118.762 18.8178 118.787 18.8312 118.032 20.7166C117.314 22.512 117.035 24.4472 116.213 26.2062C115.873 26.9266 116.111 27.6337 116.269 28.3407Z" fill="#E44224"/>
<path d="M132.246 13.2861C128.733 13.2669 125.218 13.2535 121.705 13.2248C121.343 13.2209 120.934 13.3666 120.635 13.014C121.541 12.7975 122.461 12.9297 123.374 12.924C126.163 12.9029 128.952 12.9086 131.742 12.9374C131.883 12.9374 132.532 12.5522 132.246 13.2861Z" fill="#BFA32E"/>
<path d="M121.881 16.4783C122.018 16.5089 122.154 16.6086 122.112 16.7274C121.536 18.3177 121.217 20 120.393 21.5022C120.65 20.1112 121.263 18.8293 121.645 17.4765C121.739 17.1451 121.914 16.8366 121.881 16.4783Z" fill="#BFA32E"/>
<path d="M119.989 22.7075C119.999 23.6157 119.505 24.3879 119.294 25.2386C119.217 25.5509 119.035 25.869 119.569 25.9207C119.313 26.2177 119.058 26.5128 118.802 26.8098C118.724 26.7676 118.645 26.7255 118.568 26.6814C119.056 25.3612 119.375 23.9893 119.989 22.7075Z" fill="#BFA32E"/>
<path d="M111.995 13.9702C111.916 14.5431 111.59 14.8669 111.018 14.9454C111.271 14.5488 111.586 14.2135 111.995 13.9702Z" fill="#BFA32E"/>
<path d="M110.272 15.6927C110.292 15.9245 110.311 16.1583 110.33 16.3901C110.105 16.4572 109.767 16.6373 109.7 16.3461C109.629 16.0261 110.009 15.8556 110.272 15.6927Z" fill="#BFA32E"/>
<path d="M121.38 8.8561C121.207 8.4384 121.357 8.12991 121.705 7.88657C121.699 8.24487 121.612 8.57444 121.38 8.8561Z" fill="#BFA32E"/>
<path d="M123.289 3.16342C123.159 3.14235 123.028 3.11935 122.895 3.09828C122.982 2.8626 123.149 2.56944 123.376 2.66524C123.645 2.77829 123.439 3.01205 123.289 3.16342Z" fill="#BFA32E"/>
<path d="M120.204 12.8933C119.872 12.7822 119.845 12.6442 120.166 12.4737C120.18 12.6136 120.191 12.7534 120.204 12.8933Z" fill="#BFA32E"/>
<path d="M108.017 39.9426C112.387 39.956 116.757 39.979 121.128 39.979C125.627 39.979 130.123 39.956 134.622 39.9426C136.948 39.956 139.276 39.9714 141.602 39.9829C144.244 39.9944 145.641 41.3605 145.645 43.9664C145.65 47.308 145.654 50.6497 145.643 53.9913C145.635 56.5244 144.206 57.9423 141.65 57.9423C128.093 57.948 114.538 57.948 100.982 57.9423C98.427 57.9404 96.998 56.5244 96.9884 53.9894C96.9769 50.6152 96.9788 47.2429 96.9884 43.8687C96.9961 41.3912 98.4232 39.9982 100.937 39.9829C103.3 39.9695 105.659 39.956 108.017 39.9426ZM140.795 49.0287C140.789 47.103 140.384 45.3 139.145 43.7614C137.641 41.8932 135.363 41.8951 133.832 43.7575C131.769 46.2695 131.596 50.7876 133.456 53.6483C135.092 56.168 137.875 56.1737 139.518 53.656C140.434 52.2515 140.793 50.688 140.795 49.0287ZM101.838 49.1226C101.865 50.8796 102.257 52.7229 103.58 54.25C105.077 55.9745 107.218 55.9687 108.713 54.2615C111.062 51.5771 111.046 46.304 108.68 43.6234C107.157 41.897 104.917 41.9507 103.494 43.7499C102.294 45.2674 101.859 47.0302 101.838 49.1226Z" fill="#020303"/>
<path d="M121.236 71.4775C118.27 71.4775 115.303 71.4583 112.337 71.4909C111.659 71.4985 111.35 71.3702 111.404 70.6095C111.473 69.6284 111.467 68.634 111.406 67.651C111.361 66.9344 111.586 66.739 112.306 66.7447C116.868 66.7773 121.428 66.762 125.99 66.762C127.425 66.762 128.863 66.8099 130.294 66.7428C131.087 66.7064 131.27 66.9919 131.228 67.7162C131.17 68.6685 131.168 69.6284 131.228 70.5788C131.272 71.2916 131.049 71.5024 130.325 71.4928C127.298 71.4545 124.267 71.4775 121.236 71.4775Z" fill="#060606"/>
<path d="M140.795 49.0287C140.793 50.688 140.434 52.2515 139.518 53.656C137.873 56.1737 135.092 56.1661 133.456 53.6483C131.596 50.7876 131.769 46.2695 133.832 43.7575C135.361 41.8951 137.641 41.8932 139.145 43.7614C140.384 45.3 140.789 47.103 140.795 49.0287Z" fill="#30CDF2"/>
<path d="M101.838 49.1225C101.859 47.0302 102.294 45.2674 103.494 43.7498C104.917 41.9506 107.157 41.8951 108.68 43.6234C111.046 46.304 111.062 51.577 108.713 54.2615C107.22 55.9687 105.077 55.9725 103.58 54.25C102.257 52.7228 101.867 50.8796 101.838 49.1225Z" fill="#30CEF2"/>
</g>
<defs>
<clipPath id="clip0">
<rect width="242.72" height="289.32" fill="white" transform="translate(0 78.8619)"/>
</clipPath>
<clipPath id="clip1">
<rect width="83.2432" height="90.2531" fill="white" transform="translate(79.7382)"/>
</clipPath>
</defs>
</svg>
